# xmcd
#
# Track frame offsets: 
#        180
#        13247
#        27643
#        43921
#        61914
#        78790
#        92618
#        112090
#        130184
#        144822
#
# Disc length: 2243 seconds
#
# Revision: 0
# Processed by: cddbd v1.4PL0 Copyright (c) Steve Scherf et al.
# Submitted via: ExactAudioCopy v0.90b4
#
DISCID=8108c10a
DTITLE=T.J. Weaver - T.J. Weaver
DYEAR=1996
DGENRE=Country
TTITLE0=Hit a Homerun
TTITLE1=I'll Do Anything
TTITLE2=I Will Always Be Your Daddy
TTITLE3=Crazy About You
TTITLE4=All She Needed Was Love
TTITLE5=Walking The Floor
TTITLE6=Don't Burn Our Bridge
TTITLE7=Without You (There's No Me)
TTITLE8=So The Story Goes
TTITLE9=Here With Me
EXTD=
EXTT0=
EXTT1=
EXTT2=
EXTT3=
EXTT4=
EXTT5=
EXTT6=
EXTT7=
EXTT8=
EXTT9=
PLAYORDER=
